<mxfile host="app.diagrams.net" modified="2024-05-03T13:02:41.739Z" agent="Mozilla/5.0 (Macintosh; Intel Mac OS X 10_15_7) AppleWebKit/537.36 (KHTML, like Gecko) Chrome/124.0.0.0 Safari/537.36" etag="fc2BIhLEyak9Ly6p1hhP" version="24.3.1" type="github">
  <diagram name="페이지-1" id="mEdMHl7BtcMYuRLEzmer">
    <mxGraphModel dx="1455" dy="912" grid="0" gridSize="10" guides="1" tooltips="1" connect="1" arrows="1" fold="1" page="1" pageScale="1" pageWidth="1920" pageHeight="1200" math="0" shadow="0">
      <root>
        <mxCell id="0" />
        <mxCell id="1" parent="0" />
        <mxCell id="QOe7KPIE9faf6luRgLte-23" value="" style="shape=requiredInterface;html=1;verticalLabelPosition=bottom;sketch=0;rotation=135;" vertex="1" parent="1">
          <mxGeometry x="516.5" y="329" width="10" height="20" as="geometry" />
        </mxCell>
        <mxCell id="QOe7KPIE9faf6luRgLte-3" style="rounded=0;orthogonalLoop=1;jettySize=auto;html=1;endArrow=none;endFill=0;exitX=0.5;exitY=1;exitDx=0;exitDy=0;entryX=0.5;entryY=0;entryDx=0;entryDy=0;" edge="1" parent="1" source="QOe7KPIE9faf6luRgLte-13" target="QOe7KPIE9faf6luRgLte-4">
          <mxGeometry relative="1" as="geometry">
            <mxPoint x="707.5" y="362" as="sourcePoint" />
            <mxPoint x="691.5" y="409" as="targetPoint" />
          </mxGeometry>
        </mxCell>
        <mxCell id="QOe7KPIE9faf6luRgLte-58" style="edgeStyle=orthogonalEdgeStyle;rounded=0;orthogonalLoop=1;jettySize=auto;html=1;fontFamily=Helvetica;fontSize=12;fontColor=default;shape=link;" edge="1" parent="1" source="QOe7KPIE9faf6luRgLte-1" target="QOe7KPIE9faf6luRgLte-15">
          <mxGeometry relative="1" as="geometry" />
        </mxCell>
        <mxCell id="QOe7KPIE9faf6luRgLte-1" value="PERSON" style="whiteSpace=wrap;html=1;align=center;" vertex="1" parent="1">
          <mxGeometry x="513.5" y="211" width="100" height="40" as="geometry" />
        </mxCell>
        <mxCell id="QOe7KPIE9faf6luRgLte-49" style="rounded=0;orthogonalLoop=1;jettySize=auto;html=1;fontFamily=Helvetica;fontSize=12;fontColor=default;endArrow=none;endFill=0;" edge="1" parent="1" source="QOe7KPIE9faf6luRgLte-2" target="QOe7KPIE9faf6luRgLte-47">
          <mxGeometry relative="1" as="geometry" />
        </mxCell>
        <mxCell id="QOe7KPIE9faf6luRgLte-2" value="PROGRAM" style="whiteSpace=wrap;html=1;align=center;" vertex="1" parent="1">
          <mxGeometry x="507.5" y="560" width="100" height="40" as="geometry" />
        </mxCell>
        <mxCell id="QOe7KPIE9faf6luRgLte-4" value="Implements" style="shape=rhombus;perimeter=rhombusPerimeter;whiteSpace=wrap;html=1;align=center;" vertex="1" parent="1">
          <mxGeometry x="591.5" y="451" width="120" height="60" as="geometry" />
        </mxCell>
        <mxCell id="QOe7KPIE9faf6luRgLte-8" style="rounded=0;orthogonalLoop=1;jettySize=auto;html=1;endArrow=none;endFill=0;exitX=0.5;exitY=1;exitDx=0;exitDy=0;shape=link;entryX=1;entryY=0.5;entryDx=0;entryDy=0;" edge="1" parent="1" source="QOe7KPIE9faf6luRgLte-4" target="QOe7KPIE9faf6luRgLte-2">
          <mxGeometry relative="1" as="geometry">
            <mxPoint x="817.5" y="209" as="sourcePoint" />
            <mxPoint x="921.5" y="209" as="targetPoint" />
          </mxGeometry>
        </mxCell>
        <mxCell id="QOe7KPIE9faf6luRgLte-55" value="M" style="edgeLabel;html=1;align=center;verticalAlign=middle;resizable=0;points=[];sketch=0;strokeColor=default;fontFamily=Helvetica;fontSize=12;fontColor=default;fillColor=default;" vertex="1" connectable="0" parent="QOe7KPIE9faf6luRgLte-8">
          <mxGeometry x="-0.2075" y="5" relative="1" as="geometry">
            <mxPoint x="11" as="offset" />
          </mxGeometry>
        </mxCell>
        <mxCell id="QOe7KPIE9faf6luRgLte-13" value="PROGRAMER" style="whiteSpace=wrap;html=1;align=center;" vertex="1" parent="1">
          <mxGeometry x="601.5" y="363" width="100" height="40" as="geometry" />
        </mxCell>
        <mxCell id="QOe7KPIE9faf6luRgLte-20" style="rounded=0;orthogonalLoop=1;jettySize=auto;html=1;endArrow=none;endFill=0;" edge="1" parent="1" source="QOe7KPIE9faf6luRgLte-14" target="QOe7KPIE9faf6luRgLte-18">
          <mxGeometry relative="1" as="geometry" />
        </mxCell>
        <mxCell id="QOe7KPIE9faf6luRgLte-14" value="USER" style="whiteSpace=wrap;html=1;align=center;" vertex="1" parent="1">
          <mxGeometry x="418.5" y="363" width="100" height="40" as="geometry" />
        </mxCell>
        <mxCell id="QOe7KPIE9faf6luRgLte-21" style="rounded=0;orthogonalLoop=1;jettySize=auto;html=1;endArrow=none;endFill=0;" edge="1" parent="1" source="QOe7KPIE9faf6luRgLte-23" target="QOe7KPIE9faf6luRgLte-14">
          <mxGeometry relative="1" as="geometry" />
        </mxCell>
        <mxCell id="QOe7KPIE9faf6luRgLte-22" style="rounded=0;orthogonalLoop=1;jettySize=auto;html=1;endArrow=none;endFill=0;" edge="1" parent="1" source="QOe7KPIE9faf6luRgLte-28" target="QOe7KPIE9faf6luRgLte-13">
          <mxGeometry relative="1" as="geometry" />
        </mxCell>
        <mxCell id="QOe7KPIE9faf6luRgLte-15" value="O" style="ellipse;whiteSpace=wrap;html=1;aspect=fixed;" vertex="1" parent="1">
          <mxGeometry x="547" y="288" width="33" height="33" as="geometry" />
        </mxCell>
        <mxCell id="QOe7KPIE9faf6luRgLte-17" value="정해진 사용자만 사용할 수 있으므로 Total Partial로 정의한다." style="text;html=1;align=center;verticalAlign=middle;resizable=0;points=[];autosize=1;strokeColor=#666666;fillColor=#f5f5f5;fontColor=#333333;" vertex="1" parent="1">
          <mxGeometry x="235" y="262" width="312" height="26" as="geometry" />
        </mxCell>
        <mxCell id="QOe7KPIE9faf6luRgLte-19" style="rounded=0;orthogonalLoop=1;jettySize=auto;html=1;entryX=0;entryY=0.5;entryDx=0;entryDy=0;shape=link;" edge="1" parent="1" source="QOe7KPIE9faf6luRgLte-18" target="QOe7KPIE9faf6luRgLte-2">
          <mxGeometry relative="1" as="geometry" />
        </mxCell>
        <mxCell id="QOe7KPIE9faf6luRgLte-18" value="uses" style="shape=rhombus;perimeter=rhombusPerimeter;whiteSpace=wrap;html=1;align=center;" vertex="1" parent="1">
          <mxGeometry x="406.5" y="449" width="120" height="60" as="geometry" />
        </mxCell>
        <mxCell id="QOe7KPIE9faf6luRgLte-24" value="" style="rounded=0;orthogonalLoop=1;jettySize=auto;html=1;endArrow=none;endFill=0;" edge="1" parent="1" source="QOe7KPIE9faf6luRgLte-15" target="QOe7KPIE9faf6luRgLte-23">
          <mxGeometry relative="1" as="geometry">
            <mxPoint x="550.5" y="315" as="sourcePoint" />
            <mxPoint x="492.5" y="363" as="targetPoint" />
          </mxGeometry>
        </mxCell>
        <mxCell id="QOe7KPIE9faf6luRgLte-29" value="" style="rounded=0;orthogonalLoop=1;jettySize=auto;html=1;endArrow=none;endFill=0;" edge="1" parent="1" source="QOe7KPIE9faf6luRgLte-15" target="QOe7KPIE9faf6luRgLte-28">
          <mxGeometry relative="1" as="geometry">
            <mxPoint x="575.5" y="315" as="sourcePoint" />
            <mxPoint x="629.5" y="363" as="targetPoint" />
          </mxGeometry>
        </mxCell>
        <mxCell id="QOe7KPIE9faf6luRgLte-28" value="" style="shape=requiredInterface;html=1;verticalLabelPosition=bottom;sketch=0;strokeColor=default;align=center;verticalAlign=middle;fontFamily=Helvetica;fontSize=12;fontColor=default;fillColor=default;rotation=45;" vertex="1" parent="1">
          <mxGeometry x="594.5" y="326" width="10" height="20" as="geometry" />
        </mxCell>
        <mxCell id="QOe7KPIE9faf6luRgLte-35" style="rounded=0;orthogonalLoop=1;jettySize=auto;html=1;fontFamily=Helvetica;fontSize=12;fontColor=default;endArrow=none;endFill=0;" edge="1" parent="1" source="QOe7KPIE9faf6luRgLte-31" target="QOe7KPIE9faf6luRgLte-1">
          <mxGeometry relative="1" as="geometry" />
        </mxCell>
        <mxCell id="QOe7KPIE9faf6luRgLte-31" value="&lt;u&gt;loginName&lt;/u&gt;" style="ellipse;whiteSpace=wrap;html=1;align=center;sketch=0;strokeColor=default;verticalAlign=middle;fontFamily=Helvetica;fontSize=12;fontColor=default;fillColor=default;" vertex="1" parent="1">
          <mxGeometry x="521.5" y="142" width="84" height="34" as="geometry" />
        </mxCell>
        <mxCell id="QOe7KPIE9faf6luRgLte-34" style="rounded=0;orthogonalLoop=1;jettySize=auto;html=1;fontFamily=Helvetica;fontSize=12;fontColor=default;endArrow=none;endFill=0;" edge="1" parent="1" source="QOe7KPIE9faf6luRgLte-32" target="QOe7KPIE9faf6luRgLte-13">
          <mxGeometry relative="1" as="geometry" />
        </mxCell>
        <mxCell id="QOe7KPIE9faf6luRgLte-32" value="&lt;u&gt;code&lt;/u&gt;" style="ellipse;whiteSpace=wrap;html=1;align=center;sketch=0;strokeColor=default;verticalAlign=middle;fontFamily=Helvetica;fontSize=12;fontColor=default;fillColor=default;" vertex="1" parent="1">
          <mxGeometry x="724.5" y="364" width="64" height="38" as="geometry" />
        </mxCell>
        <mxCell id="QOe7KPIE9faf6luRgLte-39" style="rounded=0;orthogonalLoop=1;jettySize=auto;html=1;fontFamily=Helvetica;fontSize=12;fontColor=default;endArrow=none;endFill=0;entryX=0.5;entryY=1;entryDx=0;entryDy=0;" edge="1" parent="1" source="QOe7KPIE9faf6luRgLte-36" target="QOe7KPIE9faf6luRgLte-2">
          <mxGeometry relative="1" as="geometry" />
        </mxCell>
        <mxCell id="QOe7KPIE9faf6luRgLte-36" value="name" style="ellipse;whiteSpace=wrap;html=1;align=center;sketch=0;strokeColor=default;verticalAlign=middle;fontFamily=Helvetica;fontSize=12;fontColor=default;fillColor=default;" vertex="1" parent="1">
          <mxGeometry x="441" y="659" width="64" height="38" as="geometry" />
        </mxCell>
        <mxCell id="QOe7KPIE9faf6luRgLte-40" style="rounded=0;orthogonalLoop=1;jettySize=auto;html=1;fontFamily=Helvetica;fontSize=12;fontColor=default;endArrow=none;endFill=0;entryX=0.5;entryY=1;entryDx=0;entryDy=0;" edge="1" parent="1" source="QOe7KPIE9faf6luRgLte-37" target="QOe7KPIE9faf6luRgLte-2">
          <mxGeometry relative="1" as="geometry" />
        </mxCell>
        <mxCell id="QOe7KPIE9faf6luRgLte-37" value="extension" style="ellipse;whiteSpace=wrap;html=1;align=center;sketch=0;strokeColor=default;verticalAlign=middle;fontFamily=Helvetica;fontSize=12;fontColor=default;fillColor=default;" vertex="1" parent="1">
          <mxGeometry x="518.5" y="662" width="64" height="38" as="geometry" />
        </mxCell>
        <mxCell id="QOe7KPIE9faf6luRgLte-41" style="rounded=0;orthogonalLoop=1;jettySize=auto;html=1;fontFamily=Helvetica;fontSize=12;fontColor=default;endArrow=none;endFill=0;entryX=0.5;entryY=1;entryDx=0;entryDy=0;" edge="1" parent="1" source="QOe7KPIE9faf6luRgLte-38" target="QOe7KPIE9faf6luRgLte-2">
          <mxGeometry relative="1" as="geometry" />
        </mxCell>
        <mxCell id="QOe7KPIE9faf6luRgLte-38" value="compound&lt;div&gt;Name&lt;/div&gt;" style="ellipse;whiteSpace=wrap;html=1;align=center;sketch=0;strokeColor=default;verticalAlign=middle;fontFamily=Helvetica;fontSize=12;fontColor=default;fillColor=default;" vertex="1" parent="1">
          <mxGeometry x="613.5" y="662" width="64" height="38" as="geometry" />
        </mxCell>
        <mxCell id="QOe7KPIE9faf6luRgLte-44" style="rounded=0;orthogonalLoop=1;jettySize=auto;html=1;fontFamily=Helvetica;fontSize=12;fontColor=default;endArrow=none;endFill=0;entryX=0.5;entryY=1;entryDx=0;entryDy=0;" edge="1" parent="1" source="QOe7KPIE9faf6luRgLte-42" target="QOe7KPIE9faf6luRgLte-2">
          <mxGeometry relative="1" as="geometry" />
        </mxCell>
        <mxCell id="QOe7KPIE9faf6luRgLte-42" value="version&lt;div&gt;Name&lt;/div&gt;" style="ellipse;whiteSpace=wrap;html=1;align=center;sketch=0;strokeColor=default;verticalAlign=middle;fontFamily=Helvetica;fontSize=12;fontColor=default;fillColor=default;" vertex="1" parent="1">
          <mxGeometry x="441" y="722" width="64" height="38" as="geometry" />
        </mxCell>
        <mxCell id="QOe7KPIE9faf6luRgLte-45" style="rounded=0;orthogonalLoop=1;jettySize=auto;html=1;fontFamily=Helvetica;fontSize=12;fontColor=default;endArrow=none;endFill=0;exitX=0.5;exitY=0;exitDx=0;exitDy=0;entryX=0.5;entryY=1;entryDx=0;entryDy=0;" edge="1" parent="1" source="QOe7KPIE9faf6luRgLte-43" target="QOe7KPIE9faf6luRgLte-2">
          <mxGeometry relative="1" as="geometry">
            <mxPoint x="549" y="728" as="sourcePoint" />
            <mxPoint x="555" y="595" as="targetPoint" />
          </mxGeometry>
        </mxCell>
        <mxCell id="QOe7KPIE9faf6luRgLte-43" value="short&lt;div&gt;Description&lt;/div&gt;" style="ellipse;whiteSpace=wrap;html=1;align=center;sketch=0;strokeColor=default;verticalAlign=middle;fontFamily=Helvetica;fontSize=12;fontColor=default;fillColor=default;" vertex="1" parent="1">
          <mxGeometry x="580" y="722" width="64" height="38" as="geometry" />
        </mxCell>
        <mxCell id="QOe7KPIE9faf6luRgLte-51" style="rounded=0;orthogonalLoop=1;jettySize=auto;html=1;fontFamily=Helvetica;fontSize=12;fontColor=default;shape=link;" edge="1" parent="1" source="QOe7KPIE9faf6luRgLte-47" target="QOe7KPIE9faf6luRgLte-50">
          <mxGeometry relative="1" as="geometry" />
        </mxCell>
        <mxCell id="QOe7KPIE9faf6luRgLte-47" value="Interacts" style="shape=rhombus;perimeter=rhombusPerimeter;whiteSpace=wrap;html=1;align=center;" vertex="1" parent="1">
          <mxGeometry x="765" y="550" width="120" height="60" as="geometry" />
        </mxCell>
        <mxCell id="QOe7KPIE9faf6luRgLte-50" value="DBMS" style="shape=ext;margin=3;double=1;whiteSpace=wrap;html=1;align=center;sketch=0;strokeColor=default;verticalAlign=middle;fontFamily=Helvetica;fontSize=12;fontColor=default;fillColor=default;" vertex="1" parent="1">
          <mxGeometry x="1009" y="560" width="100" height="40" as="geometry" />
        </mxCell>
        <mxCell id="QOe7KPIE9faf6luRgLte-52" value="N" style="text;html=1;align=center;verticalAlign=middle;resizable=0;points=[];autosize=1;strokeColor=none;fillColor=none;fontFamily=Helvetica;fontSize=12;fontColor=default;" vertex="1" parent="1">
          <mxGeometry x="933" y="581" width="27" height="26" as="geometry" />
        </mxCell>
        <mxCell id="QOe7KPIE9faf6luRgLte-53" value="1" style="text;html=1;align=center;verticalAlign=middle;resizable=0;points=[];autosize=1;strokeColor=none;fillColor=none;fontFamily=Helvetica;fontSize=12;fontColor=default;" vertex="1" parent="1">
          <mxGeometry x="681" y="581" width="25" height="26" as="geometry" />
        </mxCell>
        <mxCell id="QOe7KPIE9faf6luRgLte-54" value="N" style="text;html=1;align=center;verticalAlign=middle;resizable=0;points=[];autosize=1;strokeColor=none;fillColor=none;fontFamily=Helvetica;fontSize=12;fontColor=default;" vertex="1" parent="1">
          <mxGeometry x="646" y="422" width="27" height="26" as="geometry" />
        </mxCell>
        <mxCell id="QOe7KPIE9faf6luRgLte-56" value="N" style="text;html=1;align=center;verticalAlign=middle;resizable=0;points=[];autosize=1;strokeColor=none;fillColor=none;fontFamily=Helvetica;fontSize=12;fontColor=default;" vertex="1" parent="1">
          <mxGeometry x="464" y="419" width="27" height="26" as="geometry" />
        </mxCell>
        <mxCell id="QOe7KPIE9faf6luRgLte-57" value="M" style="text;html=1;align=center;verticalAlign=middle;resizable=0;points=[];autosize=1;strokeColor=none;fillColor=none;fontFamily=Helvetica;fontSize=12;fontColor=default;" vertex="1" parent="1">
          <mxGeometry x="488.5" y="511" width="28" height="26" as="geometry" />
        </mxCell>
        <mxCell id="QOe7KPIE9faf6luRgLte-59" value="해당 요구사항은 프로그래밍 지원 환경에 대한 것이므로,&amp;nbsp;&lt;div&gt;프로그램과 상관없는 DB는 고려하지 않기에&lt;/div&gt;&lt;div&gt;약한 개체로 정의한다.&lt;/div&gt;" style="text;html=1;align=center;verticalAlign=middle;resizable=0;points=[];autosize=1;strokeColor=#666666;fillColor=#f5f5f5;fontFamily=Helvetica;fontSize=12;fontColor=#333333;" vertex="1" parent="1">
          <mxGeometry x="795" y="624" width="283" height="55" as="geometry" />
        </mxCell>
      </root>
    </mxGraphModel>
  </diagram>
</mxfile>
